<svg width="185" height="185" viewBox="0 0 185 185" fill="none" xmlns="http://www.w3.org/2000/svg">
<g clip-path="url(#clip0)">
<path d="M64.5018 144.276C47.2426 117.241 28.3876 83.3141 28.3876 64.1124C28.3876 28.7042 57.0917 0 92.5 0C127.908 0 156.612 28.7042 156.612 64.1124C156.612 99.5207 92.5 185 92.5 185L64.5018 144.276Z" fill="#FE7D2F"/>
<path opacity="0.1" d="M130.707 12.626C138.638 23.2964 143.333 36.5158 143.333 50.8329C143.333 82.5481 92.0977 154.159 81.3683 168.809C87.7678 177.952 92.4996 185 92.4996 185C92.4996 185 156.612 99.5207 156.612 64.1128C156.612 43.0213 146.427 24.3098 130.707 12.626Z" fill="black"/>
</g>
<defs>
<clipPath id="clip0">
<rect width="185" height="185" fill="white"/>
</clipPath>
</defs>
</svg>
