<svg width="25" height="25" viewBox="0 0 25 25" fill="none" xmlns="http://www.w3.org/2000/svg">
<path d="M24.2802 15.1516C26.0906 7.01622 18.9635 -0.374399 10.5938 1.04435C6.05 -1.77544 0 1.41102 0 6.81726C0 8.07456 0.346875 9.25164 0.95 10.2662C-0.732292 18.4204 6.45312 25.7048 14.8156 24.1891C15.7906 24.7048 16.9031 24.9985 18.0854 24.9985C23.2406 24.9985 26.5417 19.6516 24.2802 15.1516ZM12.6 20.7058C10.1604 20.7058 7.77708 20.1173 6.36667 18.1027C4.26458 15.1298 7.03646 13.6423 8.39687 14.7756C9.53229 15.7329 9.17604 18.0485 12.5104 18.0485C13.9802 18.0485 15.7948 17.4214 15.7948 15.9641C15.7948 13.0318 9.28958 14.4193 6.70312 11.2225C5.75312 10.0516 5.57396 7.98601 6.74062 6.4881C8.77396 3.87143 14.7406 3.71206 17.3062 5.6881C19.675 7.52143 19.0354 9.95476 17.124 9.95476C14.825 9.95476 16.0333 6.94643 12.3219 6.94643C9.63125 6.94643 8.57292 8.85997 10.4677 9.79122C12.9896 11.0433 19.5823 10.6527 19.5823 15.6277C19.574 19.1245 16.2 20.7058 12.6 20.7058Z" fill="#222222"/>
</svg>
