<svg width="40" height="34" viewBox="0 0 40 34" fill="none" xmlns="http://www.w3.org/2000/svg">
<path d="M35.92 9.915C35.92 9.55333 35.9067 9.20167 35.89 8.855C37.5167 7.7 38.885 6.25833 40 4.59833V4.59667C38.5117 5.24833 36.9283 5.68167 35.275 5.89167C36.975 4.87667 38.2733 3.28167 38.8833 1.36C37.2983 2.305 35.5483 2.97167 33.6833 3.345C32.1783 1.74167 30.0333 0.75 27.6933 0.75C23.1533 0.75 19.4983 4.435 19.4983 8.95167C19.4983 9.60167 19.5533 10.2267 19.6883 10.8217C12.8717 10.4883 6.83833 7.22167 2.785 2.24333C2.07833 3.47167 1.66167 4.87667 1.66167 6.38833C1.66167 9.22833 3.12333 11.745 5.305 13.2033C3.98667 13.1783 2.695 12.795 1.6 12.1933V12.2833C1.6 16.2683 4.44167 19.5783 8.17 20.3417C6.91667 20.685 5.37333 20.6717 4.46833 20.4717C5.53 23.7183 8.54667 26.1067 12.13 26.185C9.34 28.3667 5.79667 29.6817 1.96167 29.6817C1.29 29.6817 0.645 29.6517 0 29.57C3.63333 31.9117 7.93667 33.25 12.58 33.25C27.67 33.25 35.92 20.75 35.92 9.915Z" fill="#FE6405"/>
</svg>
